{"title":"Soul Boy.2010.DvDScr.XviD.Feel-Free","uid":5993400,"size":665395204,"categoryP":"video","categoryS":"movies","magnet":"?xt=urn:btih:e182492bf42f093304c85d51140923b9fe3c4487&amp;dn=Soul+Boy.2010.DvDScr.XviD.Feel-Free&amp;tr=udp%3A%2F%2Ftracker.openbittorrent.com%3A80&amp;tr=udp%3A%2F%2Fopen.demonii.com%3A1337&amp;tr=udp%3A%2F%2Ftracker.coppersurfer.tk%3A6969&amp;tr=udp%3A%2F%2Fexodus.desync.com%3A6969","seeders":0,"leechers":1,"uploader":"neon","files":12,"time":1290965577,"description":"Genre:Comedy | Drama | Music\nLanguage:English\nIMDb:http://www.imdb.com/title/tt1259227/\nSource:DvDScr.Thx\nSample:Yes\n\nGeneral\nComplete name :Soul.Boy.2010.DvDScr.XviD.Feel-Free\nFormat : AVI\nFormat/Info : Audio Video Interleave\nFile size : 629 MiB\nDuration : 1h 20mn\nOverall bit rate : 1 094 Kbps\nVideo #0\nCodec ID : XVID\nCodec ID/Hint : XviD\nDuration : 1h 20mn\nBit rate : 954 Kbps\nWidth : 720 pixels\nHeight : 304 pixels\nDisplay aspect ratio : 2.35:1\nFrame rate : 25.000 fps\nResolution : 24 bits\nColorimetry : 4:2:0\nScan type : Progressive\nBits/(Pixel*Frame) : 0.174\nStream size : 549 MiB (87%)\nWriting library : XviD 1.2.1 (UTC 2008-12-04)\nAudio #1\nID : 1\nFormat : MPEG Audio\nFormat version : Version 1\nFormat profile : Layer 3\nCodec ID : 55\nCodec ID/Hint : MP3\nDuration : 1h 20mn\nBit rate mode : Constant\nBit rate : 128 Kbps\nChannel(s) : 2 channels\nSampling rate : 44.1 KHz\nResolution : 16 bits\nStream size : 73.6 MiB (12%)\nAlignment : Aligned on interleaves\nInterleave, duration : 26 ms (0.65 video frame)\nInterleave, preload duration : 522 ms\n\nPlot:\nA coming-of-age drama set in the 1970s Northern Soul underground music scene.\n\n","torrent":{"xt":"urn:btih:e182492bf42f093304c85d51140923b9fe3c4487","amp;dn":"Soul+Boy.2010.DvDScr.XviD.Feel-Free","amp;tr":["udp%3A%2F%2Ftracker.openbittorrent.com%3A80","udp%3A%2F%2Fopen.demonii.com%3A1337","udp%3A%2F%2Ftracker.coppersurfer.tk%3A6969","udp%3A%2F%2Fexodus.desync.com%3A6969"],"infoHash":"e182492bf42f093304c85d51140923b9fe3c4487","infoHashBuffer":{"type":"Buffer","data":[225,130,73,43,244,47,9,51,4,200,93,81,20,9,35,185,254,60,68,135]},"announce":[],"urlList":[]}}